<svg width="15" height="15" viewBox="0 0 15 15" fill="none" xmlns="http://www.w3.org/2000/svg">
<rect width="14.368" height="14.2" fill="white"/>
<path d="M4.28 5.528L3.728 5.6L3.56 4.724L3.14 6.92L2.168 6.788L2.888 3.188L3.824 3.32L3.56 4.688L4.292 4.592L4.328 2H5.276L5.252 4.46L6.164 4.34L6.272 5.252L5.24 5.396L5.228 7.052L6.068 6.632L6.452 7.448L5.216 8.096L5.168 12.044H4.22L4.28 5.528ZM9.116 10.844L10.7 11L11.3 4.616L8.072 4.892L7.904 4.208L6.908 6.548L5.996 6.2L7.664 2.336L8.564 2.672L8.012 3.956L12.368 3.596L11.588 12.2L8.972 11.6L9.116 10.844ZM8.252 5.432L9.044 5.84L6.74 9.776L5.948 9.332L8.252 5.432ZM10.064 5.564L10.904 5.972L8.192 11.192L7.352 10.784L10.064 5.564ZM2 8.672L3.884 7.736L3.872 8.78L2.432 9.536L2 8.672Z" fill="black"/>
</svg>
